<?xml version="1.0" encoding="UTF-8" standalone="no"?>
<svg
   xmlns:dc="http://purl.org/dc/elements/1.1/"
   xmlns:cc="http://creativecommons.org/ns#"
   xmlns:rdf="http://www.w3.org/1999/02/22-rdf-syntax-ns#"
   xmlns:svg="http://www.w3.org/2000/svg"
   xmlns="http://www.w3.org/2000/svg"
   xmlns:sodipodi="http://sodipodi.sourceforge.net/DTD/sodipodi-0.dtd"
   xmlns:inkscape="http://www.inkscape.org/namespaces/inkscape"
   width="960"
   height="1057.7964"
   viewBox="151.58745 101.51339 254.00689 279.88476"
   version="1.1"
   id="svg880"
   sodipodi:docname="kidneyNew2Radius-960.svg"
   inkscape:export-filename="D:\bitmap.png"
   inkscape:export-xdpi="95.905602"
   inkscape:export-ydpi="95.905602"
   inkscape:version="0.92.5 (2060ec1f9f, 2020-04-08)">
  <metadata
     id="metadata886">
    <rdf:RDF>
      <cc:Work
         rdf:about="">
        <dc:format>image/svg+xml</dc:format>
        <dc:type
           rdf:resource="http://purl.org/dc/dcmitype/StillImage" />
        <dc:title></dc:title>
      </cc:Work>
    </rdf:RDF>
  </metadata>
  <defs
     id="defs884" />
  <sodipodi:namedview
     pagecolor="#ffffff"
     bordercolor="#666666"
     borderopacity="1"
     objecttolerance="10"
     gridtolerance="10"
     guidetolerance="10"
     inkscape:pageopacity="0"
     inkscape:pageshadow="2"
     inkscape:window-width="1920"
     inkscape:window-height="1017"
     id="namedview882"
     showgrid="false"
     units="px"
     fit-margin-top="0"
     fit-margin-left="0"
     fit-margin-right="0"
     fit-margin-bottom="0"
     inkscape:zoom="0.3563418"
     inkscape:cx="-182.06559"
     inkscape:cy="8.2961137"
     inkscape:window-x="-8"
     inkscape:window-y="1072"
     inkscape:window-maximized="1"
     inkscape:current-layer="svg880" />
  <g
     id="g903"
     transform="matrix(3.75,0,0,3.75,-1215.9991,-669.9219)">
    <path
       inkscape:connector-curvature="0"
       id="path850"
       d="m 427.03064,205.74029 c 2.02498,0 3.87636,1.14373 4.78263,2.95446 0.90596,1.81084 0.71236,3.97828 -0.50164,5.59927 l -21.47136,28.67504 21.49906,28.81228 c 1.20983,1.62152 1.40108,3.78725 0.49416,5.59596 -0.90703,1.80859 -2.75734,2.9505 -4.7806,2.9505 h -56.99102 c -2.95361,0 -5.34813,-2.39452 -5.34813,-5.34824 v -63.89115 c 0,-2.9537 2.39452,-5.34812 5.34813,-5.34812 z"
       style="fill:#ff0000;stroke:#0000ff;stroke-width:0.0128128mm" />
    <path
       inkscape:connector-curvature="0"
       id="path852"
       d="m 374.23611,259.89289 -4.94949,2.92002 v -5.84165 z"
       style="fill:#000000;stroke:#0000ff;stroke-width:0.0128128mm" />
    <path
       inkscape:connector-curvature="0"
       id="path854"
       d="m 421.92071,275.6409 h -4.47309 v -4.47298 l -2.50469,-4.46988 h 9.47937 l -2.50159,4.46988 z"
       style="fill:#000000;stroke:#0000ff;stroke-width:0.0128128mm" />
    <path
       inkscape:connector-curvature="0"
       id="path856"
       d="m 373.91181,243.61853 c 0,0.33906 -0.0856,0.65353 -0.25136,0.94339 -0.16686,0.29093 -0.39361,0.52197 -0.68027,0.68989 -0.28558,0.17007 -0.60112,0.25457 -0.94339,0.25457 -0.33479,0 -0.64497,-0.0856 -0.9327,-0.25136 -0.28558,-0.16686 -0.51448,-0.39254 -0.68454,-0.6792 -0.169,-0.28558 -0.2535,-0.59897 -0.2535,-0.93911 h -0.87921 v -2.23269 h 4.62518 z"
       style="fill:#000000;stroke:#0000ff;stroke-width:0.0128128mm" />
    <path
       inkscape:connector-curvature="0"
       id="path858"
       d="m 373.47573,266.69804 v 8.94286 h -4.65086 v -8.94286 z"
       style="fill:#000000;stroke:#0000ff;stroke-width:0.0128128mm" />
    <path
       inkscape:connector-curvature="0"
       id="path860"
       d="m 369.28662,219.37668 v -2.31345 h 2.31345 l 2.31174,-1.2954 v 4.90264 l -2.31174,-1.29379 z"
       style="fill:#000000;stroke:#0000ff;stroke-width:0.0128128mm" />
    <path
       inkscape:connector-curvature="0"
       id="path862"
       d="m 369.28662,227.37058 v -2.31173 h 2.31345 v -0.95837 h 2.31816 v 4.16857 h -2.31816 v -0.89847 z"
       style="fill:#000000;stroke:#0000ff;stroke-width:0.0128128mm" />
    <path
       inkscape:connector-curvature="0"
       id="path864"
       d="m 373.91823,254.20997 c 0,0.34014 -0.0856,0.65353 -0.25136,0.94232 -0.16686,0.28773 -0.39469,0.51662 -0.68348,0.68562 -0.28772,0.17007 -0.60433,0.25457 -0.9466,0.25457 -0.29521,0 -0.57117,-0.0642 -0.82787,-0.19146 -0.25457,-0.12729 -0.47063,-0.3027 -0.64712,-0.52732 l -1.27454,0.68027 v -4.06375 h 4.63161 z"
       style="fill:#000000;stroke:#0000ff;stroke-width:0.0128128mm" />
    <path
       inkscape:connector-curvature="0"
       id="path866"
       d="m 377.69083,275.65341 v -8.95537 h 4.46999 c 0.81076,0 1.55852,0.20322 2.24274,0.6086 0.68562,0.40324 1.22898,0.94874 1.62826,1.63457 0.40111,0.68455 0.60219,1.43071 0.60219,2.23965 0,0.81076 -0.20108,1.55959 -0.60219,2.24585 -0.39896,0.68455 -0.94232,1.22684 -1.62826,1.62826 -0.68454,0.39896 -1.43177,0.59898 -2.24274,0.59898 z"
       style="fill:#000000;stroke:#0000ff;stroke-width:0.0128128mm" />
    <path
       inkscape:connector-curvature="0"
       id="path868"
       d="m 373.91181,213.34411 c 0,0.29093 -0.0642,0.55191 -0.19467,0.78615 -0.12942,0.23318 -0.29842,0.41608 -0.50806,0.54871 -0.20965,0.13263 -0.42891,0.19895 -0.65781,0.19895 -0.29949,0 -0.56047,-0.10696 -0.78616,-0.31126 -0.12407,0.16793 -0.26847,0.29201 -0.43426,0.37437 -0.16472,0.0856 -0.33906,0.123 -0.52411,0.123 -0.25028,0 -0.49308,-0.0749 -0.72733,-0.22248 -0.23317,-0.1476 -0.42356,-0.35725 -0.57117,-0.63106 -0.1476,-0.27275 -0.2214,-0.58508 -0.2214,-0.93698 v -2.33281 h 4.62518 z"
       style="fill:#000000;stroke:#0000ff;stroke-width:0.0128128mm" />
    <path
       inkscape:connector-curvature="0"
       id="path870"
       d="m 373.91823,231.81779 c 0,0.34013 -0.0856,0.65353 -0.25136,0.94232 -0.16686,0.28772 -0.39469,0.51662 -0.68348,0.68562 -0.28772,0.17006 -0.60433,0.25456 -0.9466,0.25456 -0.29521,0 -0.57117,-0.0642 -0.82787,-0.19146 -0.25457,-0.12728 -0.47063,-0.30269 -0.64712,-0.52731 l -1.27454,0.68027 v -4.06375 h 4.63161 z"
       style="fill:#000000;stroke:#0000ff;stroke-width:0.0128128mm" />
    <path
       inkscape:connector-curvature="0"
       id="path872"
       d="m 374.23611,237.38915 -4.94949,2.91991 v -5.84154 z"
       style="fill:#000000;stroke:#0000ff;stroke-width:0.0128128mm" />
    <path
       inkscape:connector-curvature="0"
       id="path874"
       d="m 395.1946,266.69761 v 3.29727 l -4.49855,-3.51558 v 9.14812 h 4.44549 v -3.29727 l 4.49748,3.51558 v -9.14812 z"
       style="fill:#000000;stroke:#0000ff;stroke-width:0.0128128mm" />
    <path
       inkscape:connector-curvature="0"
       id="path876"
       d="m 373.96261,250.59 -1.29593,-0.009 v -0.93805 h -0.53587 v 0.93805 h -0.93805 v -0.93805 h -0.53587 v 0.93805 l -1.37027,0.009 v -3.87347 h 4.67599 z"
       style="fill:#000000;stroke:#0000ff;stroke-width:0.0128128mm" />
    <path
       inkscape:connector-curvature="0"
       id="path878"
       d="m 411.22519,266.68552 -0.0214,2.47849 h -1.79383 v 1.02468 h 1.79383 v 1.79384 h -1.79383 v 1.02468 h 1.79383 l 0.0214,2.62064 h -7.40829 v -8.94297 z"
       style="fill:#000000;stroke:#0000ff;stroke-width:0.0128128mm" />
  </g>
</svg>
